<svg width="45" height="45" viewBox="0 0 45 45" fill="none" xmlns="http://www.w3.org/2000/svg">
<circle cx="22.5" cy="22.5" r="22.5" fill="#12051E"/>
<path d="M9.748 30V13.486H17.775C21.823 13.486 22.858 16.016 22.858 17.718C22.858 20.087 21.524 20.754 20.834 21.099C22.858 21.858 23.387 23.468 23.387 25.101C23.387 26.412 22.835 27.654 21.961 28.505C21.018 29.425 20.121 30 16.74 30H9.748ZM13.06 22.732V27.148H17.292C18.971 27.148 19.937 26.412 19.937 24.733C19.937 23.284 18.695 22.732 17.453 22.732H13.06ZM13.06 16.338V19.949H17.108C18.465 19.949 19.546 19.42 19.546 18.109C19.546 16.752 18.58 16.338 17.016 16.338H13.06ZM33.2926 26.412H36.6046C35.7536 29.356 33.3156 30.322 31.2226 30.322C27.7726 30.322 25.1276 28.666 25.1276 23.629C25.1276 22.157 25.6336 17.442 30.9926 17.442C33.4076 17.442 36.7426 18.592 36.7426 24.181V24.756H28.3476C28.4396 25.676 28.6236 27.746 31.2226 27.746C32.1196 27.746 33.0396 27.286 33.2926 26.412ZM28.4396 22.663H33.4306C33.2466 20.685 31.9816 20.087 30.9466 20.087C29.4286 20.087 28.6236 21.053 28.4396 22.663Z" fill="#E94ACE"/>
</svg>
