<svg width="742" height="1117" viewBox="0 0 742 1117" fill="none" xmlns="http://www.w3.org/2000/svg">
<path d="M8.27881 0.288635C10.1224 0.223051 11.9858 0.729713 13.4614 1.88043C14.9448 3.03741 16.0043 4.82057 16.2671 7.23785C16.766 11.829 21.0017 55.3448 25.1118 97.7056C27.1671 118.888 29.1914 139.785 30.7017 155.385C31.4568 163.185 32.0831 169.662 32.521 174.188C32.7399 176.451 32.9118 178.227 33.0288 179.437C33.0319 179.469 33.0346 179.501 33.0376 179.533L33.1646 180.839L705.581 181.833L719.813 31.1148L719.832 31.1158C720.882 19.9485 721.602 12.2772 721.785 10.232C722.047 7.29512 723.432 5.13421 725.369 3.73395C727.294 2.34211 729.742 1.7153 732.136 1.77985C734.53 1.84449 736.913 2.60085 738.708 4.02692C740.515 5.46218 741.716 7.57056 741.716 10.2759C741.716 12.8498 740.528 26.0301 738.755 44.2935C736.98 62.5798 734.613 86.0082 732.247 109.118C729.88 132.228 727.513 155.021 725.738 172.036C724.85 180.543 724.111 187.606 723.593 192.543C723.334 195.01 723.131 196.947 722.993 198.266C722.923 198.926 722.87 199.432 722.834 199.772C722.817 199.942 722.803 200.071 722.793 200.158C722.789 200.201 722.786 200.234 722.784 200.255C722.783 200.266 722.781 200.275 722.781 200.28C722.78 200.282 722.78 200.284 722.78 200.286L722.283 200.236L722.78 200.288L722.77 200.384L722.724 200.471L681.926 276.941V782.953L735.707 930.065L735.737 930.148V949.34L735.59 949.487L731.751 953.318V1043.7L731.724 1043.78L706.812 1116.38L706.696 1116.72H36.3452L36.2261 1116.39L10.3179 1044.78L10.2876 1044.7V952.367L6.50244 949.533L6.30127 949.383V931.145L6.33057 931.063L60.1118 779.973V273.961L18.3237 199.486L18.2729 199.395L18.2622 199.293L18.7593 199.241C18.3065 199.287 18.2659 199.29 18.2622 199.29C18.2621 199.288 18.2615 199.286 18.2612 199.284C18.2607 199.278 18.2594 199.269 18.2583 199.258C18.256 199.236 18.253 199.203 18.2485 199.159C18.2394 199.07 18.2254 198.938 18.2075 198.764C18.1717 198.416 18.1185 197.9 18.0493 197.226C17.9109 195.878 17.7085 193.9 17.4507 191.379C16.9349 186.338 16.1986 179.127 15.3188 170.449C13.5594 153.092 11.2239 129.864 8.91943 106.381C6.61505 82.8987 4.34161 59.1585 2.70654 40.7779C1.88905 31.5881 1.23172 23.7348 0.809082 17.9234C0.597823 15.0185 0.445077 12.6202 0.36084 10.8189C0.277572 9.03811 0.258267 7.7939 0.32666 7.23199C0.861399 2.84488 4.60557 0.419569 8.27881 0.288635ZM106.451 299.471V725.139H642.563V299.471H106.451ZM33.2104 197.092L44.9272 213.659H696.084L703.857 200.081C703.858 200.074 703.859 200.066 703.86 200.058C703.868 199.972 703.881 199.844 703.897 199.675C703.929 199.337 703.976 198.833 704.039 198.177C704.163 196.865 704.345 194.939 704.578 192.484C704.828 189.844 705.135 186.591 705.491 182.833L33.2104 181.838V197.092Z" fill="#2B2C5C"/>
<path d="M720.31 31.1613H18.093L32.71 181.12L705.342 182.115L720.31 31.1613Z" fill="#7339C5" stroke="black"/>
<path d="M32.7101 197.033V181.12L706.338 182.114L704.345 201.011L696.374 213.94H44.668L32.7101 197.033Z" fill="#2B2C5C" stroke="black"/>
<path d="M53.6363 1109.26L30.717 1042.62L712.317 1043.61L690.394 1109.26H53.6363Z" fill="#7339C5" stroke="black"/>
<path d="M29.7205 1032.67L30.717 954.105H713.314V1032.67H29.7205Z" fill="#7339C5" stroke="black"/>
<path d="M79.5451 782.048V274.826L44.6679 214.159" stroke="black"/>
<path d="M662.493 781.053V274.826L696.373 214.159" stroke="black"/>
<path d="M79.5452 782.048L26.7312 930.236H713.314L662.493 781.053" stroke="black"/>
<path d="M106.482 853.655C106.414 846.393 106.482 844.704 106.482 844.704H140.362C140.362 844.704 141.28 849.33 140.362 854.65C139.445 859.97 106.55 860.918 106.482 853.655Z" fill="#77E874" stroke="black" stroke-linecap="round"/>
<path d="M123.423 836.254C128.036 836.254 132.444 837.243 135.68 838.825C138.957 840.426 140.86 842.538 140.86 844.705C140.86 846.849 138.989 848.718 135.709 850.075C132.471 851.414 128.055 852.161 123.423 852.161C118.79 852.161 114.375 851.414 111.137 850.075C107.857 848.718 105.986 846.849 105.986 844.705C105.986 842.538 107.889 840.426 111.166 838.825C114.402 837.243 118.809 836.254 123.423 836.254Z" fill="#77E874" stroke="black"/>
<path d="M166.271 853.655C166.203 846.393 166.271 844.704 166.271 844.704H200.152C200.152 844.704 201.07 849.33 200.152 854.65C199.234 859.97 166.34 860.918 166.271 853.655Z" fill="#77E874" stroke="black" stroke-linecap="round"/>
<path d="M183.212 836.254C187.826 836.254 192.234 837.243 195.47 838.825C198.747 840.426 200.65 842.538 200.65 844.705C200.65 846.849 198.779 848.718 195.498 850.075C192.261 851.414 187.845 852.161 183.212 852.161C178.58 852.161 174.165 851.414 170.927 850.075C167.647 848.718 165.776 846.849 165.776 844.705C165.776 842.538 167.678 840.426 170.955 838.825C174.192 837.243 178.599 836.254 183.212 836.254Z" fill="#77E874" stroke="black"/>
<path d="M132.391 879.514C132.322 872.252 132.391 870.563 132.391 870.563H166.271C166.271 870.563 167.189 875.188 166.271 880.508C165.353 885.829 132.459 886.776 132.391 879.514Z" fill="#77E874" stroke="black" stroke-linecap="round"/>
<path d="M149.331 862.112C153.945 862.112 158.353 863.102 161.589 864.683C164.866 866.284 166.769 868.396 166.769 870.563C166.769 872.707 164.898 874.576 161.618 875.933C158.38 877.272 153.964 878.019 149.331 878.019C144.699 878.019 140.284 877.272 137.046 875.933C133.766 874.576 131.895 872.707 131.895 870.563C131.895 868.396 133.798 866.284 137.075 864.683C140.311 863.102 144.718 862.112 149.331 862.112Z" fill="#77E874" stroke="black"/>
<path d="M550.847 853.112C550.779 845.85 550.847 844.161 550.847 844.161H584.728C584.728 844.161 585.646 848.787 584.728 854.107C583.81 859.427 550.915 860.375 550.847 853.112Z" fill="#E94ACE" stroke="black" stroke-linecap="round"/>
<path d="M567.788 835.711C572.402 835.711 576.81 836.7 580.046 838.282C583.323 839.883 585.226 841.995 585.226 844.162C585.226 846.306 583.355 848.175 580.074 849.532C576.837 850.871 572.421 851.618 567.788 851.618C563.156 851.618 558.741 850.871 555.503 849.532C552.223 848.175 550.352 846.306 550.352 844.162C550.352 841.995 552.254 839.883 555.531 838.282C558.768 836.7 563.175 835.711 567.788 835.711Z" fill="#E94ACE" stroke="black"/>
<path d="M610.637 853.112C610.568 845.85 610.637 844.161 610.637 844.161H644.517C644.517 844.161 645.435 848.787 644.517 854.107C643.599 859.427 610.705 860.375 610.637 853.112Z" fill="#E94ACE" stroke="black" stroke-linecap="round"/>
<path d="M627.578 835.711C632.191 835.711 636.599 836.7 639.835 838.282C643.112 839.883 645.015 841.995 645.015 844.162C645.015 846.306 643.144 848.175 639.864 849.532C636.626 850.871 632.21 851.618 627.578 851.618C622.945 851.618 618.53 850.871 615.292 849.532C612.012 848.175 610.141 846.306 610.141 844.162C610.141 841.995 612.044 839.883 615.321 838.282C618.557 836.7 622.964 835.711 627.578 835.711Z" fill="#E94ACE" stroke="black"/>
<path d="M576.756 878.971C576.688 871.709 576.756 870.02 576.756 870.02H610.637C610.637 870.02 611.554 874.645 610.637 879.965C609.719 885.286 576.824 886.233 576.756 878.971Z" fill="#E94ACE" stroke="black" stroke-linecap="round"/>
<path d="M593.697 861.569C598.31 861.569 602.718 862.559 605.954 864.14C609.231 865.742 611.134 867.853 611.134 870.02C611.134 872.164 609.263 874.033 605.983 875.39C602.745 876.73 598.329 877.476 593.697 877.476C589.064 877.476 584.649 876.729 581.411 875.39C578.131 874.033 576.26 872.164 576.26 870.02C576.26 867.853 578.163 865.742 581.44 864.14C584.676 862.559 589.083 861.569 593.697 861.569Z" fill="#E94ACE" stroke="black"/>
<path d="M78.5487 781.829H663.489" stroke="black"/>
<path d="M644.897 295.091L645.514 727.606L645.515 728.106H100.91V294.592H644.896L644.897 295.091ZM118.409 309.417V715.194H628.612V309.417H118.409Z" fill="#7339C5"/>
<path d="M644.897 295.091L645.397 295.09V295.09L644.897 295.091ZM645.514 727.606L645.014 727.607V727.607L645.514 727.606ZM645.515 728.106V728.606H646.016L646.015 728.105L645.515 728.106ZM100.91 728.106H100.41V728.606H100.91V728.106ZM100.91 294.592V294.092H100.41V294.592H100.91ZM644.896 294.592L645.396 294.591L645.395 294.092H644.896V294.592ZM118.409 309.417V308.917H117.909V309.417H118.409ZM118.409 715.194H117.909V715.694H118.409V715.194ZM628.612 715.194V715.694H629.112V715.194H628.612ZM628.612 309.417H629.112V308.917H628.612V309.417ZM644.897 295.091L644.397 295.091L645.014 727.607L645.514 727.606L646.014 727.605L645.397 295.09L644.897 295.091ZM645.514 727.606L645.014 727.607L645.015 728.107L645.515 728.106L646.015 728.105L646.014 727.605L645.514 727.606ZM645.515 728.106V727.606H100.91V728.106V728.606H645.515V728.106ZM100.91 728.106H101.41V294.592H100.91H100.41V728.106H100.91ZM100.91 294.592V295.092H644.896V294.592V294.092H100.91V294.592ZM644.896 294.592L644.396 294.593L644.397 295.092L644.897 295.091L645.397 295.09L645.396 294.591L644.896 294.592ZM118.409 309.417H117.909V715.194H118.409H118.909V309.417H118.409ZM118.409 715.194V715.694H628.612V715.194V714.694H118.409V715.194ZM628.612 715.194H629.112V309.417H628.612H628.112V715.194H628.612ZM628.612 309.417V308.917H118.409V309.417V309.917H628.612V309.417Z" fill="black"/>
<path d="M722.282 8.06784L15.7696 6.07874L18.359 30.9425H720.289L722.282 8.06784Z" fill="#2B2C5C" stroke="black"/>
<path d="M285.372 844.249C296.527 845.067 306.281 847.295 313.232 850.39C316.71 851.938 319.463 853.694 321.338 855.578C323.212 857.461 324.182 859.441 324.182 861.46C324.182 863.756 322.926 866.005 320.516 868.111C318.107 870.217 314.593 872.135 310.207 873.757C301.44 876.999 289.294 879.014 275.854 879.014C262.414 879.014 250.268 876.999 241.5 873.757C237.115 872.135 233.6 870.217 231.192 868.111C228.782 866.005 227.526 863.756 227.526 861.46C227.526 859.425 228.512 857.428 230.416 855.531C232.322 853.633 235.119 851.867 238.651 850.312C245.709 847.206 255.607 844.987 266.905 844.21L285.372 844.249Z" fill="#2B2C5C" stroke="black"/>
<path d="M266.885 858.628V801.939H284.822V858.628C284.822 860.617 281.833 861.612 276.85 861.612C272.001 861.612 266.885 861.612 266.885 858.628Z" fill="#2B2C5C" stroke="black"/>
<path d="M306.745 775.086C306.745 791.015 292.468 803.928 274.857 803.928C257.246 803.928 242.97 791.015 242.97 775.086C242.97 759.157 257.246 746.244 274.857 746.244C292.468 746.244 306.745 759.157 306.745 775.086Z" fill="#77E874" stroke="black"/>
<path d="M482.64 841.717C493.794 842.535 503.549 844.763 510.5 847.857C513.978 849.406 516.731 851.162 518.606 853.046C520.48 854.928 521.45 856.909 521.45 858.928C521.45 861.223 520.194 863.473 517.784 865.579C515.375 867.685 511.861 869.603 507.475 871.225C498.708 874.466 486.562 876.481 473.122 876.481C459.682 876.481 447.536 874.466 438.768 871.225C434.383 869.603 430.868 867.685 428.46 865.579C426.05 863.473 424.794 861.223 424.794 858.928C424.794 856.892 425.78 854.895 427.684 852.999C429.59 851.101 432.387 849.335 435.919 847.78C442.977 844.674 452.875 842.455 464.173 841.678L482.64 841.717Z" fill="#2B2C5C" stroke="black"/>
<path d="M464.153 856.096V799.407H482.09V856.096C482.09 858.085 479.101 859.08 474.118 859.08C469.269 859.08 464.153 859.08 464.153 856.096Z" fill="#2B2C5C" stroke="black"/>
<path d="M504.013 772.554C504.013 788.483 489.736 801.396 472.125 801.396C454.514 801.396 440.237 788.483 440.237 772.554C440.237 756.625 454.514 743.712 472.125 743.712C489.736 743.712 504.013 756.625 504.013 772.554Z" fill="#E94ACE" stroke="black"/>
</svg>
