<svg width="85" height="42" viewBox="0 0 85 42" fill="none" xmlns="http://www.w3.org/2000/svg">
<path d="M26.9141 15.5156C27.1094 15.9714 27.168 16.4531 27.0898 16.9609C27.0117 17.4557 26.8034 17.8789 26.4648 18.2305L9.70703 36.9219H26.875V42H3.98438C3.48958 42 3.02734 41.8633 2.59766 41.5898C2.18099 41.3034 1.86849 40.9323 1.66016 40.4766C1.4388 40.0208 1.36719 39.5456 1.44531 39.0508C1.53646 38.556 1.74479 38.1263 2.07031 37.7617L18.8672 19.0703H1.66016V13.9922H24.5898C25.0846 13.9922 25.5404 14.1354 25.957 14.4219C26.3867 14.6953 26.7057 15.0599 26.9141 15.5156ZM52.7344 35.0078C52.7344 35.7109 52.6107 36.4727 52.3633 37.293C52.1159 38.1003 51.7122 38.8555 51.1523 39.5586C50.6055 40.2487 49.8828 40.8281 48.9844 41.2969C48.099 41.7656 47.0182 42 45.7422 42H36.582C35.8789 42 35.1172 41.8763 34.2969 41.6289C33.4896 41.3815 32.7344 40.9844 32.0312 40.4375C31.3411 39.8776 30.7617 39.1549 30.293 38.2695C29.8242 37.3711 29.5898 36.2839 29.5898 35.0078C29.5898 34.3047 29.7135 33.543 29.9609 32.7227C30.2083 31.9023 30.6055 31.1471 31.1523 30.457C31.7122 29.7539 32.4349 29.168 33.3203 28.6992C34.2188 28.2305 35.306 27.9961 36.582 27.9961H45.7422V32.8398H36.582C35.8919 32.8398 35.3581 33.0547 34.9805 33.4844C34.6029 33.901 34.4141 34.4219 34.4141 35.0469C34.4141 35.7109 34.6289 36.2318 35.0586 36.6094C35.5013 36.974 36.0221 37.1562 36.6211 37.1562H45.7422C46.4323 37.1562 46.9661 36.9479 47.3438 36.5312C47.7214 36.1146 47.9102 35.5938 47.9102 34.9688V27.8789C47.9102 27.2148 47.7018 26.6875 47.2852 26.2969C46.8815 25.9062 46.3672 25.7109 45.7422 25.7109H34.5898V20.8867H45.7422C46.4453 20.8867 47.2005 21.0104 48.0078 21.2578C48.8281 21.5052 49.5833 21.9089 50.2734 22.4688C50.9766 23.0156 51.5625 23.7383 52.0312 24.6367C52.5 25.5221 52.7344 26.6029 52.7344 27.8789V35.0078ZM75.5469 25.9648H64.1211C63.431 25.9648 62.9102 26.1406 62.5586 26.4922C62.207 26.8307 62.0312 27.332 62.0312 27.9961V42H56.9531V27.9961C56.9531 27.1237 57.0638 26.3424 57.2852 25.6523C57.5065 24.9622 57.7995 24.3568 58.1641 23.8359C58.5417 23.3021 58.9714 22.8529 59.4531 22.4883C59.9349 22.1107 60.4362 21.8047 60.957 21.5703C61.4909 21.3359 62.0247 21.1667 62.5586 21.0625C63.1055 20.9453 63.6133 20.8867 64.082 20.8867H75.5469V25.9648ZM84.0625 16.5508H78.9844V11.9609H84.0625V16.5508ZM84.0625 42H78.9844V20.8867H84.0625V42Z" fill="white"/>
<path d="M45.8468 7.90693L45.3482 7.86912L45.3467 7.88945L45.3468 7.90984L45.8468 7.90693ZM57.7843 1.62035L57.7884 2.12034L57.7843 1.62035ZM64.2957 19.969V20.469H64.3266L64.3572 20.4652L64.2957 19.969ZM36.2967 20.3779L36.3414 19.8799L36.2967 20.3779ZM36.8394 10.8202L37.3011 11.012L37.6373 10.2028L36.7696 10.3251L36.8394 10.8202ZM38.1959 9.18469L37.9337 9.61043L38.3006 9.83637L38.5782 9.5069L38.1959 9.18469ZM49.5908 13.1713L49.0951 13.1061L49.0815 13.2092L49.1102 13.3092L49.5908 13.1713ZM51.1102 8.36692L50.826 8.77832L51.1102 8.36692ZM62.8849 12.9669L62.3849 12.971L62.3855 13.0408L62.4052 13.1077L62.8849 12.9669ZM65.2724 13.6824L65.6264 14.0355L65.7481 13.9135L65.7688 13.7424L65.2724 13.6824ZM73.6287 19.969L73.2859 20.3329L73.6287 19.969ZM67.3886 22.5756L67.8081 22.8477L67.3886 22.5756ZM67.1716 26L66.7459 26.2624C66.8576 26.4435 67.0717 26.5341 67.2795 26.4882C67.4872 26.4423 67.6432 26.2699 67.6681 26.0586L67.1716 26ZM77.1557 21.349L77.3074 21.8254L77.3476 21.8126L77.3852 21.7932L77.1557 21.349ZM73.7372 17.7201L73.8715 17.2385C73.8443 17.2309 73.8164 17.2256 73.7883 17.2227L73.7372 17.7201ZM66.5364 18.0779L66.1237 17.7956L66.5364 18.0779ZM64.2957 19.969V19.469H44.5988V19.969V20.469H64.2957V19.969ZM44.5988 19.969L44.5632 19.4702C43.3712 19.5553 41.5265 19.6778 39.8669 19.7687C39.0369 19.8142 38.2555 19.8517 37.6261 19.8727C36.9835 19.8942 36.5327 19.897 36.3414 19.8799L36.2967 20.3779L36.2521 20.8759C36.5166 20.8996 37.033 20.8931 37.6595 20.8722C38.2991 20.8508 39.0886 20.8129 39.9216 20.7672C41.5883 20.6759 43.4388 20.553 44.6344 20.4677L44.5988 19.969ZM36.2967 20.3779L36.3414 19.8799C35.7218 19.8243 33.8593 19.7907 32.1755 19.357C31.3344 19.1404 30.6028 18.8379 30.118 18.4289C29.659 18.0416 29.4269 17.5696 29.5205 16.9229L29.0257 16.8512L28.5309 16.7796C28.3803 17.8195 28.7925 18.6189 29.4731 19.1931C30.1278 19.7456 31.0308 20.0948 31.9261 20.3254C33.715 20.7862 35.7322 20.8292 36.2521 20.8759L36.2967 20.3779ZM29.0257 16.8512L29.5205 16.9229C29.5693 16.5858 29.6801 16.4202 29.7832 16.3332C29.8889 16.2439 30.0524 16.1813 30.3115 16.1789C30.8557 16.1737 31.6173 16.4348 32.4596 16.8521C33.2829 17.2599 34.1121 17.7799 34.7696 18.2165C35.0975 18.4343 35.3794 18.629 35.5965 18.7782C35.704 18.8521 35.7981 18.9166 35.8726 18.966C35.9349 19.0073 36.0171 19.0611 36.0837 19.0925L36.2967 18.6401L36.5098 18.1878C36.5221 18.1936 36.5038 18.1847 36.4252 18.1325C36.3588 18.0885 36.2716 18.0288 36.1629 17.9541C35.9478 17.8063 35.6587 17.6065 35.3228 17.3835C34.6525 16.9384 33.7827 16.3915 32.9035 15.956C32.0433 15.5299 31.0991 15.1713 30.302 15.1789C29.8905 15.1828 29.4746 15.2848 29.1378 15.5693C28.7986 15.8559 28.6042 16.2733 28.5309 16.7796L29.0257 16.8512ZM36.2967 18.6401L36.0837 19.0925C36.1085 19.1041 36.1612 19.128 36.2272 19.1418C36.2693 19.1506 36.4739 19.191 36.6614 19.0398C36.8627 18.8775 36.8548 18.6527 36.8507 18.5974C36.8452 18.524 36.8255 18.4648 36.8171 18.4406C36.7983 18.3861 36.7705 18.3266 36.7519 18.2867C36.7288 18.2372 36.7051 18.1876 36.6769 18.125C36.5687 17.8859 36.4099 17.4935 36.3073 16.9225C36.1028 15.7841 36.1116 13.8753 37.3011 11.012L36.8394 10.8202L36.3776 10.6284C35.1253 13.6428 35.0799 15.7462 35.3231 17.0994C35.4443 17.7743 35.6347 18.2475 35.7657 18.5371C35.7972 18.6067 35.8264 18.6681 35.8456 18.7094C35.8693 18.7602 35.8733 18.771 35.872 18.7672C35.8708 18.7639 35.8678 18.7548 35.8645 18.7415C35.8614 18.7292 35.8559 18.7045 35.8535 18.6716C35.8505 18.6317 35.8398 18.4177 36.0337 18.2613C36.2139 18.1161 36.4066 18.1576 36.4319 18.1629C36.4598 18.1688 36.4802 18.1759 36.4902 18.1796C36.5009 18.1836 36.5079 18.1869 36.5098 18.1878L36.2967 18.6401ZM36.8394 10.8202L36.7696 10.3251C35.6505 10.4828 34.0274 10.5442 32.767 10.2455C32.1347 10.0957 31.6525 9.86861 31.3586 9.57306C31.0902 9.3032 30.9444 8.94423 31.0378 8.40044L30.545 8.31581L30.0522 8.23118C29.9069 9.0776 30.1414 9.76725 30.6495 10.2782C31.1321 10.7635 31.8226 11.0494 32.5364 11.2186C33.9684 11.5579 35.7312 11.4813 36.9091 11.3153L36.8394 10.8202ZM30.545 8.31581L31.0378 8.40044C31.0844 8.12943 31.1775 7.95101 31.2866 7.82932C31.396 7.70742 31.5463 7.61468 31.7511 7.55498C32.18 7.43002 32.7971 7.46516 33.5483 7.65006C35.0353 8.01607 36.778 8.89864 37.9337 9.61043L38.1959 9.18469L38.4581 8.75895C37.2625 8.02261 35.4185 7.08054 33.7873 6.67904C32.9794 6.48019 32.1544 6.39587 31.4714 6.59492C31.1203 6.69723 30.7972 6.87738 30.5422 7.16162C30.2871 7.44609 30.1251 7.8071 30.0522 8.23118L30.545 8.31581ZM38.1959 9.18469L38.5782 9.5069C39.2626 8.69486 40.3797 7.4977 41.4994 6.54946C42.0604 6.07435 42.6063 5.67525 43.0876 5.41671C43.5925 5.14555 43.9273 5.08337 44.1107 5.12402L44.2189 4.63587L44.3271 4.14771C43.7726 4.02481 43.1597 4.24289 42.6144 4.53575C42.0457 4.84124 41.4393 5.28993 40.8531 5.78634C39.6784 6.78114 38.5219 8.02196 37.8136 8.86248L38.1959 9.18469ZM44.2189 4.63587L44.1107 5.12402C44.611 5.2349 44.9394 5.62741 45.1418 6.20233C45.3445 6.77798 45.3807 7.44112 45.3482 7.86912L45.8468 7.90693L46.3453 7.94474C46.3852 7.41868 46.3455 6.60984 46.0851 5.87025C45.8245 5.12993 45.3028 4.36395 44.3271 4.14771L44.2189 4.63587ZM45.8468 7.90693L45.3468 7.90984C45.3558 9.44947 45.3045 11.8987 45.1218 14.2337C45.0304 15.4014 44.9067 16.5335 44.7428 17.5057C44.577 18.4888 44.3764 19.2685 44.1466 19.7556L44.5988 19.969L45.051 20.1823C45.342 19.5654 45.5601 18.673 45.7289 17.6719C45.8995 16.66 46.026 15.496 46.1187 14.3117C46.3041 11.9429 46.3559 9.46508 46.3468 7.90401L45.8468 7.90693ZM49.5908 13.1713L50.0866 13.2365C50.2028 12.3519 50.4167 11.061 50.6784 10.0556C50.8112 9.54506 50.947 9.14636 51.0722 8.91177C51.1394 8.78588 51.1724 8.768 51.1513 8.78253C51.1326 8.79543 51.0808 8.82476 51.0021 8.82692C50.9196 8.82918 50.8578 8.80028 50.826 8.77832L51.1102 8.36692L51.3943 7.95553C51.2811 7.87735 51.1381 7.82281 50.9746 7.8273C50.815 7.83168 50.6826 7.89108 50.5838 7.95918C50.4025 8.08412 50.2774 8.27715 50.19 8.44083C50.0061 8.78538 49.8468 9.28048 49.7106 9.80368C49.4342 10.8656 49.214 12.2019 49.0951 13.1061L49.5908 13.1713ZM51.1102 8.36692L50.826 8.77832C50.8176 8.77254 50.8653 8.80896 50.9409 8.96772C51.0098 9.11225 51.0792 9.3098 51.1459 9.55364C51.2787 10.0398 51.3853 10.6543 51.4618 11.2714C51.538 11.8866 51.5824 12.4886 51.5947 12.9443C51.6008 13.1736 51.5986 13.3564 51.5899 13.4815C51.5854 13.5456 51.5801 13.5814 51.5772 13.5956C51.5757 13.603 51.5771 13.5927 51.585 13.5725C51.5889 13.5623 51.6156 13.4905 51.6898 13.4207L52.0326 13.7846L52.3754 14.1486C52.4631 14.066 52.5024 13.9727 52.5177 13.9329C52.537 13.883 52.5489 13.8349 52.5567 13.7969C52.5725 13.7203 52.5816 13.6347 52.5875 13.5509C52.5993 13.3803 52.6009 13.1618 52.5943 12.9175C52.5811 12.4261 52.5339 11.7919 52.4542 11.1484C52.3747 10.507 52.2609 9.8405 52.1105 9.29011C52.0355 9.01566 51.9477 8.75601 51.8438 8.53778C51.7467 8.33377 51.6062 8.10186 51.3943 7.95553L51.1102 8.36692ZM52.0326 13.7846L51.6898 13.4207C51.6912 13.4193 51.6667 13.4409 51.6103 13.4785C51.5581 13.5133 51.4895 13.5545 51.4095 13.5951C51.2453 13.6784 51.057 13.7469 50.8784 13.7669C50.705 13.7862 50.566 13.7581 50.4527 13.6808C50.3383 13.6026 50.1852 13.4297 50.0714 13.0334L49.5908 13.1713L49.1102 13.3092C49.2678 13.8584 49.5285 14.2605 49.8888 14.5066C50.2503 14.7535 50.6471 14.7989 50.9892 14.7607C51.3261 14.7231 51.6329 14.6031 51.8621 14.4868C52.0854 14.3735 52.2754 14.2428 52.3754 14.1486L52.0326 13.7846ZM62.8849 12.9669L63.3849 12.9627C63.3759 11.8744 63.4359 10.3453 63.6357 9.26403C63.6852 8.99596 63.7414 8.76626 63.8032 8.58327C63.8674 8.39311 63.9268 8.28663 63.9661 8.23836C64.0005 8.19607 63.9614 8.26319 63.8573 8.25473C63.7868 8.249 63.8088 8.21502 63.9233 8.34276L64.2957 8.00915L64.6681 7.67554C64.4895 7.47617 64.2472 7.28312 63.9383 7.25802C63.5959 7.23019 63.3447 7.41766 63.1905 7.60713C63.0411 7.79061 62.9355 8.02729 62.8558 8.26338C62.7736 8.50665 62.707 8.78629 62.6523 9.08235C62.4352 10.2576 62.3758 11.8616 62.3849 12.971L62.8849 12.9669ZM64.2957 8.00915L63.9233 8.34276C64.3989 8.87372 64.6717 9.81919 64.7875 10.8857C64.9008 11.9283 64.8536 12.9808 64.776 13.6224L65.2724 13.6824L65.7688 13.7424C65.854 13.0381 65.9045 11.9082 65.7817 10.7777C65.6615 9.67121 65.3646 8.45301 64.6681 7.67554L64.2957 8.00915ZM65.2724 13.6824L64.9184 13.3293C64.6742 13.5741 64.3435 13.7612 64.0898 13.7562C63.9868 13.7542 63.8803 13.7215 63.766 13.6103C63.6415 13.489 63.491 13.2563 63.3647 12.826L62.8849 12.9669L62.4052 13.1077C62.561 13.6383 62.7799 14.0458 63.0683 14.3267C63.3671 14.6176 63.717 14.7491 64.0702 14.756C64.7291 14.7689 65.3099 14.3529 65.6264 14.0355L65.2724 13.6824ZM45.8468 7.90693L46.2159 8.2442C46.5427 7.88656 46.9703 7.46033 47.4812 7.00099L47.1469 6.62917L46.8126 6.25736C46.2804 6.73586 45.8291 7.18505 45.4777 7.56966L45.8468 7.90693ZM47.1469 6.62917L47.6459 6.65987C47.6905 5.93509 47.8105 4.8542 48.0213 3.96546C48.1278 3.51692 48.2501 3.14914 48.3808 2.90465C48.5341 2.61793 48.5955 2.68257 48.5056 2.68257V2.18257V1.68257C47.9816 1.68257 47.6675 2.11776 47.4989 2.43319C47.3077 2.79084 47.1617 3.2568 47.0484 3.73463C46.8197 4.69864 46.6944 5.84105 46.6478 6.59848L47.1469 6.62917ZM47.1469 6.62917L47.4812 7.00099C48.0856 6.45749 48.8036 5.87052 49.6046 5.29826L49.3139 4.89142L49.0233 4.48458C48.1898 5.08005 47.4428 5.6907 46.8126 6.25736L47.1469 6.62917ZM49.3139 4.89142L49.6046 5.29826C51.9328 3.6349 54.8957 2.14403 57.7884 2.12034L57.7843 1.62035L57.7802 1.12037C54.5818 1.14657 51.413 2.77728 49.0233 4.48458L49.3139 4.89142ZM48.5056 2.18257V2.68257C48.5142 2.68257 48.5395 2.67368 48.5966 2.75841C48.6649 2.85964 48.7312 3.03634 48.7784 3.28993C48.8715 3.79013 48.86 4.4153 48.8165 4.84057L49.3139 4.89142L49.8113 4.94227C49.8602 4.46459 49.8785 3.73534 49.7615 3.10685C49.7036 2.7961 49.6048 2.46488 49.4257 2.19929C49.2354 1.91719 48.9311 1.68257 48.5056 1.68257V2.18257ZM47.1469 6.62917L47.4597 7.01925L49.6267 5.28149L49.3139 4.89142L49.0011 4.50135L46.8341 6.2391L47.1469 6.62917ZM57.7843 1.62035L57.7884 2.12034C59.4054 2.10709 61.276 3.21726 62.9515 5.03336L63.319 4.69432L63.6865 4.35527C61.9431 2.4656 59.8206 1.10366 57.7802 1.12037L57.7843 1.62035ZM63.319 4.69432L63.8102 4.60111C63.7065 4.05463 63.616 3.23146 63.6709 2.53787C63.6986 2.1882 63.7607 1.91038 63.8496 1.72383C63.935 1.54493 64.0132 1.50812 64.0664 1.49767L63.9701 1.00703L63.8739 0.51639C63.4062 0.60817 63.1154 0.940388 62.9471 1.29329C62.7824 1.63853 62.706 2.05527 62.6741 2.45888C62.6096 3.27184 62.7144 4.1901 62.8278 4.78752L63.319 4.69432ZM63.319 4.69432L62.9515 5.03336C63.6404 5.78 64.2832 6.63263 64.8468 7.54658L65.2724 7.28413L65.698 7.02169C65.1026 6.05624 64.4214 5.15179 63.6865 4.35527L63.319 4.69432ZM63.9701 1.00703L64.0664 1.49767C63.9996 1.51079 63.9595 1.47081 63.9793 1.48974C64.0141 1.52317 64.0775 1.6105 64.1518 1.78825C64.298 2.13788 64.4212 2.67461 64.5173 3.32539C64.7077 4.61453 64.7724 6.20813 64.7724 7.28413H65.2724H65.7724C65.7724 6.18259 65.7069 4.53542 65.5066 3.17928C65.4074 2.50742 65.2701 1.8704 65.0744 1.40248C64.9778 1.17145 64.8499 0.939065 64.6712 0.767744C64.4773 0.581923 64.2011 0.452166 63.8739 0.51639L63.9701 1.00703ZM64.2957 19.969L64.3572 20.4652C65.7221 20.296 67.8223 20.0933 69.6834 20.0343C70.6156 20.0047 71.4738 20.0118 72.1446 20.0739C72.4807 20.1051 72.7559 20.1489 72.9636 20.2037C73.1867 20.2625 73.2707 20.3187 73.2859 20.3329L73.6287 19.969L73.9715 19.605C73.7696 19.4148 73.4851 19.307 73.2187 19.2367C72.937 19.1624 72.6017 19.112 72.2369 19.0782C71.506 19.0105 70.6007 19.0047 69.6518 19.0348C67.7508 19.095 65.6185 19.3012 64.2342 19.4728L64.2957 19.969ZM73.6287 19.969L73.2859 20.3329C73.3208 20.3659 73.2864 20.3471 73.2671 20.2738C73.2405 20.1731 73.2685 20.0737 73.3115 20.0122C73.3406 19.9706 73.3597 19.9697 73.3157 19.9941C73.2774 20.0154 73.2144 20.043 73.1197 20.0749C72.7212 20.2092 72.0696 20.3225 71.2699 20.4744C70.498 20.6211 69.6207 20.7992 68.8566 21.0632C68.1148 21.3195 67.365 21.6934 66.9692 22.3035L67.3886 22.5756L67.8081 22.8477C68.0092 22.5378 68.4734 22.2537 69.1831 22.0084C69.8705 21.7709 70.6821 21.604 71.4566 21.4568C72.2034 21.3149 72.9558 21.1854 73.439 21.0226C73.5648 20.9802 73.6896 20.9302 73.8005 20.8688C73.9057 20.8104 74.0354 20.7218 74.1307 20.5858C74.2399 20.4298 74.2894 20.2294 74.2341 20.0192C74.186 19.8364 74.0722 19.6999 73.9715 19.605L73.6287 19.969ZM67.3886 22.5756L66.9692 22.3035C65.8877 23.9703 66.3413 25.606 66.7459 26.2624L67.1716 26L67.5972 25.7376C67.3507 25.3377 66.9795 24.1248 67.8081 22.8477L67.3886 22.5756ZM67.1716 26L67.6681 26.0586C67.7437 25.4182 67.9898 24.4816 68.4605 23.7563C68.9223 23.0449 69.5455 22.6032 70.4186 22.7139L70.4815 22.2178L70.5444 21.7218C69.1603 21.5463 68.2099 22.3056 67.6217 23.2119C67.0425 24.1043 66.7623 25.2018 66.675 25.9414L67.1716 26ZM70.4815 22.2178L70.4186 22.7139C71.6176 22.8659 73.0203 22.7424 74.2648 22.5374C75.5152 22.3315 76.643 22.0369 77.3074 21.8254L77.1557 21.349L77.004 20.8725C76.3842 21.0699 75.3036 21.3529 74.1023 21.5507C72.895 21.7495 71.6028 21.856 70.5444 21.7218L70.4815 22.2178ZM77.1557 21.349L77.3852 21.7932C77.7107 21.625 78.0609 21.368 78.2815 21.0157C78.5185 20.6372 78.5937 20.1601 78.3507 19.6646C78.1267 19.2074 77.6596 18.7926 76.9599 18.4062C76.2509 18.0146 75.2484 17.6224 73.8715 17.2385L73.7372 17.7201L73.6029 18.2018C74.9392 18.5743 75.8607 18.9415 76.4765 19.2816C77.1017 19.6269 77.3604 19.9162 77.4528 20.1047C77.5264 20.2549 77.5089 20.3652 77.4339 20.485C77.3425 20.631 77.1614 20.7833 76.9262 20.9047L77.1557 21.349ZM65.2724 7.28413L64.8468 7.54658C65.9127 9.27509 66.6831 11.2033 66.9554 13.0251C67.2282 14.8495 66.9962 16.5201 66.1237 17.7956L66.5364 18.0779L66.9491 18.3602C68.0104 16.8086 68.2403 14.8561 67.9445 12.8772C67.6482 10.8958 66.8197 8.84066 65.698 7.02169L65.2724 7.28413ZM66.5364 18.0779L66.1237 17.7956C65.6539 18.4824 64.9867 19.0733 64.0756 19.52L64.2957 19.969L64.5158 20.4179C65.5727 19.8997 66.3762 19.1977 66.9491 18.3602L66.5364 18.0779ZM73.7372 17.7201L73.7883 17.2227C72.4373 17.0841 69.0738 16.9593 66.4205 17.5915L66.5364 18.0779L66.6523 18.5643C69.1468 17.9699 72.3816 18.0836 73.6862 18.2175L73.7372 17.7201Z" fill="#E94ACE"/>
</svg>
