<svg width="519" height="567" viewBox="0 0 519 567" fill="none" xmlns="http://www.w3.org/2000/svg">
<path d="M406.651 304.117C412.629 306.834 420.916 297.097 424.313 291.889C431.921 303.845 451.938 305.023 460.996 304.117C458.822 304.117 451.485 295.059 448.089 290.531C444.013 286.228 438.307 280.069 448.089 289.851C457.871 299.633 480.696 294.38 490.886 290.531C476.213 287.813 475.714 279.435 477.299 275.586C518.058 259.282 492.244 246.375 500.396 240.94C506.918 236.593 509.001 252.262 509.227 260.641C527.161 242.163 509.907 222.179 499.038 214.496C496.32 216.97 491.973 220.289 496.32 213.768C500.668 207.246 498.132 197.464 496.32 193.388C480.56 189.041 477.979 175.726 478.658 169.612C500.396 150.591 469.601 125.91 451.485 115.946C485.723 83.8825 447.636 68.1676 424.313 64.3182C421.052 23.0157 390.347 24.9178 375.402 31.0316C380.293 -13.5315 314.943 2.95324 281.656 16.766C262.092 26.5482 250.408 12.6901 247.011 4.53832C242.03 8.38778 235.463 19.4833 249.049 33.0696C217.801 44.8444 166.173 76.41 209.649 108.474C188.59 120.022 151.092 148.418 169.569 169.612C158.474 180.255 140.766 203.986 158.7 213.768C150.548 221.014 136.69 237.272 146.472 244.337C148.737 238.223 154.624 227.218 160.059 232.109C155.53 238.45 151.907 253.983 173.645 265.396C181.117 268.34 194.568 277.488 188.59 290.531C190.854 291.436 197.829 290.938 207.611 281.699C212.366 284.417 223.643 288.628 230.708 283.737C230.934 287.36 232.338 294.878 236.142 295.965M236.142 295.965L268.749 274.279M236.142 295.965L144.434 405.335V422.318M268.749 274.279C253.818 269.897 241.074 262.778 233.425 253.168C206.931 219.882 221.876 196.785 224.594 189.992C226.768 184.557 220.971 170.971 217.801 164.857C235.735 172.465 244.747 157.158 247.011 148.553C291.574 146.38 295.016 125.91 291.167 115.946C311.275 113.772 322.642 105.53 325.812 101.681C326.491 110.965 332.877 128.31 352.984 123.419C348.229 129.533 344.153 143.119 365.892 148.553C365.439 155.347 368.337 168.118 383.554 164.857C386.498 168.48 388.988 179.258 375.402 193.388C388.445 176.541 403.028 170.518 408.689 169.612C441.975 162.819 444.013 196.785 428.389 228.713C415.889 254.255 387.856 255.659 375.402 253.168C370.62 259.466 364.076 264.583 356.381 268.57M268.749 274.279C296.656 282.469 332.199 281.1 356.381 268.57M268.749 274.279V332.648L239.071 435.904M144.434 422.318L133.565 431.149C126.772 430.923 112.099 434.274 107.751 449.491M144.434 422.318C149.72 425.978 162.961 432.868 173.645 431.149M107.751 449.491C101.411 447 88.187 445.143 86.0132 457.642M107.751 449.491C108.983 451.238 110.438 453.326 112.008 455.604M86.0132 457.642L68.351 458.322C69.4832 459.001 71.6117 460.631 71.0682 461.718M86.0132 457.642C83.6529 461.891 82.4505 468.672 82.027 476.663M71.0682 461.718C70.5248 462.805 49.5565 463.53 39.1404 463.756C30.7621 448.358 12.3753 422.182 5.85385 440.659C-2.29794 463.756 4.49522 527.612 7.8918 529.65C11.2884 531.688 44.5749 539.16 71.0682 537.802M71.0682 461.718C74.778 464.888 82.1634 472.316 82.027 476.663M71.0682 537.802H87.3718M71.0682 537.802C75.6837 533.499 84.6963 522.721 83.8229 514.026M87.3718 537.802L91.4477 551.388C114.771 555.464 163.319 563.072 170.928 560.898M87.3718 537.802C86.2107 531.586 84.8848 523.163 83.8229 514.026M170.928 560.898C214.178 563.616 303.666 567.827 315.622 562.936C335.322 559.54 376.896 545.002 385.592 514.026M170.928 560.898C192.122 552.203 175.683 506.553 164.814 484.815M385.592 514.026C387.177 509.95 391.298 502.206 395.102 503.836M385.592 514.026L319.019 463.077L318.812 444.056M395.102 503.836C397.366 505.195 402.031 509.135 402.575 514.026C403.254 520.139 401.216 547.991 416.84 553.426C432.465 558.86 461.675 563.616 485.451 539.84C504.472 520.819 496.094 499.307 489.527 490.929L478.658 482.777L471.186 476.663M395.102 503.836L391.026 468.511L379.478 444.056V352.348M395.102 503.836C412.784 506.905 453.192 486.999 471.186 476.663M471.186 476.663L483.413 465.794C464.392 418.016 424.177 320.828 415.482 314.307C404.16 301.025 376.489 273.283 356.381 268.57M356.381 268.57L317.66 338.083L318.812 444.056M82.027 476.663C81.429 487.946 82.3835 501.641 83.8229 514.026M265.353 476.663C263.179 483.728 174.324 485.041 130.169 484.815C129.272 481.23 119.385 466.313 112.008 455.604M112.008 455.604L182.476 449.491M182.476 449.491L236.142 446.094L239.071 435.904M182.476 449.491V441.339L173.645 431.149M173.645 431.149L215.083 347.593M239.071 435.904L318.812 444.056M270.108 201.54C276.675 198.37 293.884 194.339 310.188 203.578M259.918 232.109C262.656 233.022 267.781 234.235 273.504 234.581M314.943 234.827C312.756 236.019 309.291 236.4 305.432 236.315M273.504 234.581C277.721 234.836 282.262 234.621 286.411 233.468C290.864 234.617 298.741 236.167 305.432 236.315M273.504 234.581C276.222 243.268 284.102 260.505 293.884 259.961C303.666 259.418 305.659 243.97 305.432 236.315M234.783 171.65C233.198 182.293 230.979 204.257 234.783 206.975C239.539 210.371 245.653 214.447 253.125 204.937C259.103 197.328 256.522 179.576 254.484 171.65C251.216 167.348 242.702 161.325 234.783 171.65ZM330.567 171.65C327.85 179.123 323.638 196.649 328.529 206.975C334.643 219.882 351.626 213.768 352.305 207.654C352.985 201.54 355.702 175.726 352.984 171.65C350.267 167.574 335.322 162.819 330.567 171.65ZM303.394 132.929C304.979 137.231 310.052 145.021 317.66 141.76C325.268 138.5 331.699 130.891 333.964 127.495C326.944 125.91 311.003 125.864 303.394 132.929Z" stroke="#E94ACE" stroke-width="3" stroke-linejoin="round"/>
<path d="M241.576 171.792C257.256 171.792 269.967 184.502 269.967 200.181C269.967 215.86 257.256 228.572 241.576 228.572C225.897 228.572 213.187 215.86 213.187 200.181C213.187 184.502 225.897 171.792 241.576 171.792ZM339.399 171.792C355.078 171.792 367.788 184.502 367.788 200.181C367.788 215.86 355.078 228.572 339.399 228.572C323.719 228.572 311.008 215.86 311.008 200.181C311.008 184.502 323.719 171.792 339.399 171.792Z" stroke="#E94ACE" stroke-width="3"/>
</svg>
